<svg width="22" height="22" viewBox="0 0 22 22" fill="none" xmlns="http://www.w3.org/2000/svg">
<g clip-path="url(#clip0_308_86)">
<path d="M20.1663 20.1632C20.607 19.7277 20.6444 19.0452 20.2785 18.5678L20.2659 18.5064L20.1563 18.3993L17.0917 15.403L17.0486 15.3375L17.0202 15.2943L16.9836 15.2579C16.7535 15.0288 16.4412 14.9017 16.1177 14.9017C15.7981 14.9017 15.4894 15.0257 15.2601 15.2496C12.805 17.4962 9.02221 17.6173 6.42145 15.5296C3.82306 13.4439 3.21444 9.80459 4.98956 7.02204C6.76779 4.2346 10.3933 3.16196 13.4618 4.53031C16.5264 5.89688 18.0674 9.2655 17.0832 12.3967L17.0831 12.3971C16.9516 12.8166 17.0602 13.271 17.3622 13.5881C17.6631 13.9039 18.1094 14.0357 18.5331 13.9404C18.9569 13.8449 19.3035 13.5341 19.4349 13.1163C20.7823 8.86108 18.7444 4.2906 14.6587 2.35686C10.5769 0.424948 5.65984 1.69579 3.08753 5.36018C0.511976 9.02919 1.06689 13.9882 4.38697 17.0249C7.59518 19.9594 12.4554 20.2496 15.9948 17.7754L18.439 20.1651L18.4398 20.1659C18.9177 20.6311 19.6857 20.6311 20.1636 20.1659L20.1636 20.1659L20.1663 20.1632Z" fill="#0D3B66" stroke="#0D3B66"/>
</g>
<defs>
<clipPath id="clip0_308_86">
<rect width="21.6667" height="21.6667" fill="white" transform="translate(0.16626 0.153564)"/>
</clipPath>
</defs>
</svg>
